<svg xmlns="http://www.w3.org/2000/svg" version="1.1" xmlns:xlink="http://www.w3.org/1999/xlink" xmlns:svgjs="http://svgjs.dev/svgjs" width="2000" height="2250" viewBox="0 0 2000 2250"><g transform="matrix(1,0,0,1,0,0)"><svg viewBox="0 0 320 360" data-background-color="#000000" preserveAspectRatio="xMidYMid meet" height="2250" width="2000" xmlns="http://www.w3.org/2000/svg" xmlns:xlink="http://www.w3.org/1999/xlink"><g id="tight-bounds" transform="matrix(1,0,0,1,0,0)"><svg viewBox="0 0 320 360" height="360" width="320"><g><svg></svg></g><g><svg viewBox="0 0 320 360" height="360" width="320"><g><path d="M297.491 100.645c-12.426-21.51-112.674-79.355-137.491-79.355-24.817 0-125.028 57.845-137.491 79.355-11.591 20.02-11.591 138.726 0 158.746 12.463 21.474 112.674 79.319 137.491 79.319 24.817 0 125.064-57.845 137.491-79.355 11.591-20.02 11.591-138.69 0-158.71zM309.481 93.705c-14.461-24.998-119.469-86.295-149.481-86.295-30.012 0-135.02 61.297-149.481 86.295-14.025 24.199-14.025 148.391 0 172.59 14.461 24.998 119.469 86.295 149.481 86.295 30.012 0 135.02-61.297 149.481-86.259 14.025-24.235 14.025-148.427 0-172.626zM300.906 261.353c-12.753 22.055-115.472 81.317-140.906 81.318-25.434 0-128.153-59.298-140.906-81.354-11.881-20.529-11.881-142.178 0-162.707 12.753-22.019 115.472-81.281 140.906-81.281 25.434 0 128.153 59.298 140.906 81.318 11.881 20.529 11.881 142.178 0 162.706z" fill="#915eff" fill-rule="nonzero" stroke="none" stroke-width="1" stroke-linecap="butt" stroke-linejoin="miter" stroke-miterlimit="10" stroke-dasharray="" stroke-dashoffset="0" font-family="none" font-weight="none" font-size="none" text-anchor="none" style="mix-blend-mode: normal" data-fill-palette-color="tertiary"></path></g><g transform="matrix(1,0,0,1,48,104.55493183640736)"><svg viewBox="0 0 224 150.89013632718527" height="150.89013632718527" width="224"><g><svg viewBox="0 0 224 150.89013632718527" height="150.89013632718527" width="224"><g><svg viewBox="0 0 224 150.89013632718527" height="150.89013632718527" width="224"><g><svg viewBox="0 0 224 150.89013632718527" height="150.89013632718527" width="224"><g id="textblocktransform"><svg viewBox="0 0 224 150.89013632718527" height="150.89013632718527" width="224" id="textblock"><g><svg viewBox="0 0 224 150.89013632718527" height="150.89013632718527" width="224"><g transform="matrix(1,0,0,1,0,0)"><svg width="224" viewBox="-0.3700000000000001 -38.43 63.339999999999996 43.01" height="150.89013632718527" data-palette-color="#ffffff"><path d="M22-34.43L26.38-34.43 26.38-11.15Q26.38-7.68 24.96-5.03 23.55-2.38 20.99-0.9 18.43 0.58 14.95 0.58L14.95 0.58Q11.4 0.58 8.86-0.91 6.33-2.4 4.98-5.05 3.63-7.7 3.63-11.15L3.63-11.15 3.63-34.43 7.93-34.43 7.93-11Q7.93-7.08 9.76-5.13 11.6-3.18 14.95-3.18L14.95-3.18Q18.32-3.18 20.16-5.13 22-7.08 22-11L22-11 22-34.43ZM54.42 0L51.67-8.78 38.05-8.78 35.3 0 31.02 0 42.22-34.43 47.77-34.43 58.97 0 54.42 0ZM44.9-30.78L39.17-12.38 50.55-12.38 44.9-30.78Z" opacity="1" transform="matrix(1,0,0,1,0,0)" fill="#ffffff" class="wordmark-text-0" data-fill-palette-color="quaternary" id="text-0"></path></svg></g></svg></g></svg></g></svg></g></svg></g></svg></g></svg></g></svg></g><defs></defs></svg><rect width="320" height="360" fill="none" stroke="none" visibility="hidden"></rect></g></svg></g></svg>